# ProBuilder 5.0.6
# https://unity3d.com/unity/features/worldbuilding/probuilder
# 2/16/2023 11:24:11 AM

mtllib ./Cube_(2).mtl
o Cube (2)

g Cube (2)
v 1 0 14
v 0 0 14
v 1 0.75 14
v 0 0.75 14
v 0 0 0
v 0 0.75 0
v 1 0 0
v 1 0.75 0

vt 1 0
vt 0 0
vt 1 0.75
vt 0 0.75
vt 14 0
vt 14 0.75
vt -1 0
vt -1 0.75
vt -14 0
vt -14 0.75
vt -1 14
vt 0 14
vt 1 14

vn 0 0 1
vn -1 0 0
vn 0 0 -1
vn 1 0 0
vn 0 1 0
vn 0 -1 0

usemtl Wall
f 3/3/1 4/4/1 2/2/1 1/1/1
f 4/6/2 6/4/2 5/2/2 2/5/2
f 6/4/3 8/8/3 7/7/3 5/2/3
f 8/4/4 3/10/4 1/9/4 7/2/4
f 8/7/5 6/2/5 4/12/5 3/11/5
f 1/13/6 2/12/6 5/2/6 7/1/6

