# ProBuilder 5.0.6
# https://unity3d.com/unity/features/worldbuilding/probuilder
# 2/16/2023 11:24:11 AM

mtllib ./Door.mtl
o Door

g Door
v 0 2.75 2.384186E-07
v 0 0 2.384186E-07
v -1.192093E-07 2.75 0.7500002
v -1.192093E-07 0 0.7500002
v -9.23872E-07 0 5.25
v -1.072884E-06 0 6
v -9.23872E-07 2.75 5.25
v -1.072884E-06 2.75 6
v 0 3.25 2.384186E-07
v -1.192093E-07 3.25 0.7500002
v -9.23872E-07 3.25 5.25
v -1.072884E-06 3.25 6
v -0.9999989 2.75 0
v -0.999999 2.75 0.75
v -0.9999989 0 0
v -0.999999 0 0.75
v -0.9999999 0 5.25
v -0.9999999 2.75 5.25
v -1 0 6
v -1 2.75 6
v -0.9999989 3.25 0
v -0.999999 3.25 0.75
v -0.9999999 3.25 5.25
v -1 3.25 6

vt -2.384186E-07 2.75
vt -2.384186E-07 0
vt -0.7500002 2.75
vt -0.7500002 0
vt -5.25 0
vt -6 0
vt -5.25 2.75
vt -6 2.75
vt -2.384186E-07 3.25
vt -0.7500002 3.25
vt -5.25 3.25
vt -6 3.25
vt 0.7500002 2.75
vt 0.7500002 0
vt 5.25 0
vt 5.25 2.75
vt 6 0
vt 6 2.75
vt 0.7500002 3.25
vt 5.25 3.25
vt 6 3.25
vt -9.23872E-07 5.25
vt -1.192093E-07 0.7500002
vt -0.9999999 5.25
vt -0.999999 0.75
vt 0.9999999 0
vt 0.9999999 2.75
vt -0.9999989 0
vt -0.9999989 2.75

vn 1 0 1.589457E-07
vn -1 0 -1.589457E-07
vn 0 -1 0
vn 0 0 -1
vn -2.384188E-07 0 1

usemtl Wall
f 3/3/1 4/4/1 2/2/1 1/1/1
f 7/7/1 8/8/1 6/6/1 5/5/1
f 9/9/1 10/10/1 3/3/1 1/1/1
f 12/12/1 8/8/1 7/7/1 11/11/1
f 10/10/1 11/11/1 7/7/1 3/3/1
f 15/2/2 16/14/2 14/13/2 13/1/2
f 19/17/2 20/18/2 18/16/2 17/15/2
f 14/13/2 22/19/2 21/9/2 13/1/2
f 18/16/2 20/18/2 24/21/2 23/20/2
f 18/16/2 23/20/2 22/19/2 14/13/2
f 18/24/3 14/25/3 3/23/3 7/22/3
f 18/27/4 7/1/4 5/2/4 17/26/4
f 3/1/5 14/29/5 16/28/5 4/2/5

